<?xml version="1.0" standalone="no"?>
<!DOCTYPE svg PUBLIC "-//W3C//DTD SVG 20010904//EN"
 "http://www.w3.org/TR/2001/REC-SVG-20010904/DTD/svg10.dtd">
<svg version="1.0" xmlns="http://www.w3.org/2000/svg"
 width="256.000000pt" height="256.000000pt" viewBox="0 0 256.000000 256.000000"
 preserveAspectRatio="xMidYMid meet">

<g transform="translate(0.000000,256.000000) scale(0.100000,-0.100000)"
fill="#000000" stroke="none">
<path d="M1110 2395 c-436 -69 -795 -386 -915 -808 -117 -413 22 -881 344
-1154 l64 -55 38 73 c46 87 75 118 151 164 69 40 81 42 126 15 28 -17 32 -25
32 -62 0 -24 9 -104 20 -178 11 -74 20 -138 20 -142 0 -5 -14 -8 -31 -8 -44 0
-34 -29 16 -47 57 -20 218 -43 300 -43 105 0 256 26 363 62 102 35 139 66 63
54 l-41 -6 0 161 c0 146 2 165 21 195 24 40 28 40 78 14 60 -30 99 -67 158
-152 30 -43 58 -78 62 -78 14 0 145 134 193 196 294 383 310 917 41 1315 -245
361 -677 550 -1103 484z m336 -456 c23 -11 54 -36 69 -55 15 -19 52 -55 83
-79 50 -39 58 -52 73 -105 10 -33 14 -60 9 -60 -5 0 -12 4 -15 10 -3 5 -24 14
-46 20 -71 19 -210 -37 -217 -88 -5 -32 23 -28 88 13 56 36 74 40 154 29 44
-6 46 -9 57 -48 37 -136 109 -489 109 -534 0 -160 -83 -370 -190 -481 l-40
-41 -112 0 c-213 0 -421 49 -558 130 -116 68 -206 185 -225 293 -4 20 -11 37
-15 37 -19 0 -59 55 -69 96 -6 25 -32 85 -57 133 -51 101 -69 186 -40 197 44
17 123 -82 160 -200 15 -47 30 -86 33 -86 3 0 2 71 -2 158 l-6 157 36 73 c20
40 33 77 30 82 -8 13 0 13 65 -5 30 -8 83 -15 116 -15 93 0 139 35 231 175
100 151 119 174 167 196 52 24 60 23 112 -2z m-385 -1370 c19 -7 45 -22 59
-34 38 -34 78 -52 193 -84 135 -38 208 -47 247 -31 30 13 35 23 31 73 -1 15 3
27 8 27 7 0 11 -46 11 -134 l0 -135 -42 -5 c-106 -13 -174 -16 -327 -17 -89 0
-165 2 -167 4 -11 11 -55 211 -61 275 -6 78 -6 79 48 61z m313 -59 c65 -6 137
-10 159 -8 33 2 41 -1 48 -19 23 -64 -65 -74 -241 -28 -155 41 -275 105 -147
79 34 -8 116 -18 181 -24z"/>
<path d="M1028 1546 c-92 -23 -134 -51 -165 -109 -23 -45 -11 -49 36 -12 56
44 153 75 267 83 90 7 107 17 79 46 -23 23 -111 20 -217 -8z"/>
<path d="M1573 1553 c9 -2 23 -2 30 0 6 3 -1 5 -18 5 -16 0 -22 -2 -12 -5z"/>
<path d="M1530 1539 c12 -8 9 -9 -12 -5 -16 4 -30 1 -34 -6 -5 -7 -2 -8 7 -3
11 6 12 5 2 -6 -21 -22 -16 -49 10 -49 48 0 64 10 59 36 -3 18 0 24 14 24 26
0 14 6 -26 14 -26 4 -31 3 -20 -5z"/>
<path d="M1600 1455 c-25 -13 -41 -24 -37 -25 11 0 87 39 87 45 0 7 0 7 -50
-20z"/>
<path d="M1033 1425 c-36 -15 -45 -30 -13 -20 16 5 20 2 20 -19 0 -22 5 -26
28 -26 15 0 37 3 49 6 18 5 20 10 12 31 -13 35 -13 35 24 29 24 -5 27 -4 12 3
-30 14 -96 12 -132 -4z"/>
<path d="M1195 1410 c3 -5 8 -10 11 -10 2 0 4 5 4 10 0 6 -5 10 -11 10 -5 0
-7 -4 -4 -10z"/>
<path d="M1530 1281 c7 -12 10 -32 7 -42 -3 -10 -1 -17 4 -13 14 8 11 38 -7
60 -14 18 -15 18 -4 -5z"/>
<path d="M1241 1213 c-1 -27 32 -63 57 -62 14 0 14 2 -3 9 -25 10 -41 28 -48
55 -4 18 -5 18 -6 -2z"/>
<path d="M1458 1212 c-21 -30 -36 -34 -68 -17 -16 8 -30 13 -30 11 0 -12 60
-35 74 -30 8 3 22 17 31 30 18 28 13 33 -7 6z"/>
<path d="M1515 1170 c5 -9 4 -11 -4 -6 -14 9 -71 -12 -71 -26 0 -5 -8 -4 -18
1 -11 6 -23 6 -28 2 -5 -4 -25 -14 -44 -21 -19 -7 -47 -22 -61 -31 -14 -10
-29 -16 -32 -12 -4 3 -9 -2 -13 -11 -3 -9 -11 -16 -18 -16 -6 0 -19 -8 -28
-19 -8 -10 -21 -20 -28 -23 -8 -2 -10 -12 -5 -27 l7 -23 17 25 c11 18 21 23
30 18 8 -6 35 1 70 16 70 30 144 66 151 73 3 3 20 5 38 4 31 -1 131 16 180 31
18 6 21 4 16 -9 -4 -11 -1 -16 10 -16 31 0 18 40 -19 56 -40 16 -79 19 -70 4
3 -5 2 -10 -4 -10 -5 0 -11 4 -13 9 -1 5 -18 12 -37 16 -26 5 -32 4 -26 -5z"/>
<path d="M1514 1046 c-17 -8 -79 -24 -138 -36 -58 -13 -105 -25 -102 -27 7 -7
200 36 251 56 28 11 43 20 35 20 -8 0 -29 -6 -46 -13z"/>
<path d="M1540 950 c0 -5 -7 -7 -15 -4 -8 4 -21 1 -29 -5 -7 -6 -16 -8 -19 -4
-4 3 -7 2 -7 -4 0 -6 -20 -14 -45 -18 -48 -7 -53 -24 -7 -23 15 1 38 -2 51 -7
16 -5 21 -4 17 4 -4 6 3 15 16 21 43 17 74 50 48 50 -5 0 -10 -4 -10 -10z"/>
<path d="M1731 892 c-14 -26 -7 -42 10 -25 6 6 9 19 7 29 -3 17 -5 17 -17 -4z"/>
<path d="M1710 830 c0 -5 -6 -9 -12 -7 -8 1 -14 -11 -16 -32 -3 -24 0 -31 9
-26 7 5 10 3 7 -6 -7 -23 -85 -77 -126 -89 -78 -21 -125 -7 -90 28 6 6 8 15 4
19 -4 5 -14 -1 -22 -11 -8 -11 -14 -16 -14 -11 0 5 -5 4 -12 -3 -18 -18 -38
-15 -31 6 5 14 4 15 -8 6 -8 -7 -23 -14 -34 -16 -37 -8 66 -32 140 -32 103 -1
179 45 226 136 25 48 24 64 -1 18 -15 -27 -19 -30 -20 -14 0 11 5 25 12 32 9
9 9 12 0 12 -7 0 -12 -4 -12 -10z"/>
<path d="M1645 788 c-12 -41 -13 -43 -14 -25 -1 20 -16 23 -28 4 -4 -7 -21
-18 -36 -25 -16 -7 -31 -21 -34 -32 -5 -18 -7 -19 -17 -5 -10 14 -12 14 -12
-4 0 -15 7 -21 23 -21 15 0 23 6 23 18 0 12 2 14 8 4 10 -15 48 -4 92 28 21
15 26 25 22 45 -5 26 -20 34 -27 13z"/>
<path d="M732 400 c0 -14 2 -19 5 -12 2 6 2 18 0 25 -3 6 -5 1 -5 -13z"/>
</g>
</svg>
